<?xml version="1.0" encoding="utf-8"?>
<!-- Generator: Adobe Illustrator 18.0.0, SVG Export Plug-In . SVG Version: 6.00 Build 0)  -->
<!DOCTYPE svg PUBLIC "-//W3C//DTD SVG 1.1//EN" "http://www.w3.org/Graphics/SVG/1.1/DTD/svg11.dtd">
<svg version="1.1" id="Layer_1" xmlns="http://www.w3.org/2000/svg" xmlns:xlink="http://www.w3.org/1999/xlink" x="0px" y="0px"
	 viewBox="0 0 960 560" enable-background="new 0 0 960 560" xml:space="preserve">
<g>
	<path fill="#E50914" d="M179,360.4V199h25l32,90.9V199h25v151.4c0,0-14.7,0.7-26.5,3.2L206,269.3v88.2
		C206,357.4,200,356.8,179,360.4z"/>
	<path fill="#E50914" d="M286,199h70v25h-45v34h34v25h-33v37.4c0,0,32-2.1,44-2v24c0,0-34,2.6-70,5.7V199z"/>
	<polygon fill="#E50914" points="373,199 450,199 450,224 424,224 424,341 399,341 399,224 373,224 	"/>
	<polygon fill="#E50914" points="467,199 537,199 537,224 492,224 492,257 526,257 526,281 492,281 492,339 467,339 	"/>
	<path fill="#E50914" d="M554,199h25v117.4c0,0,27,0.9,43,2.8v24.3c0,0-33-2-68-3V199z"/>
	<path fill="#E50914" d="M644,199h24v148.4c0,0-4-1.3-24-1.7V199z"/>
	<path fill="#E50914" d="M691,199h27l16.5,42.2l17.9-42.2H780l-31.8,76.5l31.8,85c0,0-15.4-2.3-28.9-4.5l-17.5-46.8l-19,42.6
		c0,0-5.4-0.6-27-3.1l32.6-74.3L691,199z"/>
</g>
</svg>
